<svg width="58" height="56" viewBox="0 0 58 56" fill="none" xmlns="http://www.w3.org/2000/svg">
<g clip-path="url(#clip0_705_103)">
<path fill-rule="evenodd" clip-rule="evenodd" d="M9.72498 28.0001C9.72532 24.4078 10.7946 20.8919 12.8045 17.8743C14.8143 14.8567 17.6795 12.4655 21.056 10.9878C24.4326 9.51001 28.1772 9.00839 31.8404 9.54312C35.5037 10.0778 38.93 11.6262 41.7083 14.0024C44.4866 16.3786 46.4988 19.4817 47.5035 22.9393C48.5082 26.397 48.4627 30.0623 47.3724 33.4955C46.2822 36.9287 44.1935 39.9839 41.357 42.2945C38.5205 44.6051 35.0567 46.073 31.3812 46.5221V32.6667H36.1937C36.8319 32.6667 37.4439 32.4209 37.8952 31.9833C38.3465 31.5457 38.6 30.9523 38.6 30.3334C38.6 29.7146 38.3465 29.1211 37.8952 28.6835C37.4439 28.2459 36.8319 28.0001 36.1937 28.0001H31.3812V23.3334C31.3812 22.7146 31.6347 22.1211 32.086 21.6835C32.5373 21.2459 33.1493 21.0001 33.7875 21.0001H34.9906C35.6288 21.0001 36.2408 20.7542 36.6921 20.3167C37.1433 19.8791 37.3969 19.2856 37.3969 18.6667C37.3969 18.0479 37.1433 17.4544 36.6921 17.0168C36.2408 16.5792 35.6288 16.3334 34.9906 16.3334H33.7875C31.8729 16.3334 30.0368 17.0709 28.683 18.3837C27.3293 19.6964 26.5687 21.4769 26.5687 23.3334V28.0001H21.7562C21.118 28.0001 20.506 28.2459 20.0548 28.6835C19.6035 29.1211 19.35 29.7146 19.35 30.3334C19.35 30.9523 19.6035 31.5457 20.0548 31.9833C20.506 32.4209 21.118 32.6667 21.7562 32.6667H26.5687V46.5221C21.9167 45.9532 17.6387 43.7577 14.5375 40.3475C11.4363 36.9373 9.72506 32.5468 9.72498 28.0001ZM28.975 51.3334C42.2647 51.3334 53.0375 40.8871 53.0375 28.0001C53.0375 15.1131 42.2647 4.66675 28.975 4.66675C15.6853 4.66675 4.91248 15.1131 4.91248 28.0001C4.91248 40.8871 15.6853 51.3334 28.975 51.3334Z" fill="#FFFBFB"/>
</g>
<defs>
<clipPath id="clip0_705_103">
<rect width="57.75" height="56" fill="white" transform="translate(0.0999756)"/>
</clipPath>
</defs>
</svg>
