<svg width="49" height="46" viewBox="0 0 49 46" fill="none" xmlns="http://www.w3.org/2000/svg">
<path d="M14.557 0H34.843C42.571 0 48.85 5.98 48.85 13.34V32.66C48.85 36.198 47.3743 39.5911 44.7474 42.0928C42.1206 44.5945 38.5579 46 34.843 46H14.557C6.82899 46 0.549988 40.02 0.549988 32.66V13.34C0.549988 9.80201 2.02572 6.40893 4.65254 3.9072C7.27937 1.40546 10.8421 0 14.557 0ZM14.074 4.6C11.7682 4.6 9.55684 5.47235 7.9264 7.02516C6.29596 8.57796 5.37999 10.684 5.37999 12.88V33.12C5.37999 37.697 9.26814 41.4 14.074 41.4H35.326C37.6318 41.4 39.8431 40.5276 41.4736 38.9748C43.104 37.422 44.02 35.316 44.02 33.12V12.88C44.02 8.303 40.1318 4.6 35.326 4.6H14.074ZM37.3787 8.05C38.1794 8.05 38.9472 8.3529 39.5133 8.89207C40.0794 9.43124 40.3975 10.1625 40.3975 10.925C40.3975 11.6875 40.0794 12.4188 39.5133 12.9579C38.9472 13.4971 38.1794 13.8 37.3787 13.8C36.5781 13.8 35.8103 13.4971 35.2442 12.9579C34.678 12.4188 34.36 11.6875 34.36 10.925C34.36 10.1625 34.678 9.43124 35.2442 8.89207C35.8103 8.3529 36.5781 8.05 37.3787 8.05ZM24.7 11.5C27.9025 11.5 30.9738 12.7116 33.2383 14.8683C35.5028 17.0249 36.775 19.95 36.775 23C36.775 26.05 35.5028 28.9751 33.2383 31.1317C30.9738 33.2884 27.9025 34.5 24.7 34.5C21.4975 34.5 18.4262 33.2884 16.1617 31.1317C13.8972 28.9751 12.625 26.05 12.625 23C12.625 19.95 13.8972 17.0249 16.1617 14.8683C18.4262 12.7116 21.4975 11.5 24.7 11.5ZM24.7 16.1C22.7785 16.1 20.9357 16.827 19.577 18.121C18.2183 19.415 17.455 21.17 17.455 23C17.455 24.83 18.2183 26.585 19.577 27.879C20.9357 29.173 22.7785 29.9 24.7 29.9C26.6215 29.9 28.4643 29.173 29.823 27.879C31.1817 26.585 31.945 24.83 31.945 23C31.945 21.17 31.1817 19.415 29.823 18.121C28.4643 16.827 26.6215 16.1 24.7 16.1Z" fill="#FFFBFB"/>
</svg>
