<svg width="66" height="66" viewBox="0 0 66 66" fill="none" xmlns="http://www.w3.org/2000/svg">
<path d="M33 11C35.3512 11 37.763 11.0605 40.1005 11.1595L42.8615 11.2915L45.5043 11.4483L47.9793 11.616L50.2397 11.792C52.6929 11.9798 55.0012 13.0266 56.7587 14.7484C58.5162 16.4701 59.6102 18.7565 59.8483 21.2052L59.9582 22.374L60.1645 24.8765C60.357 27.4697 60.5 30.2967 60.5 33C60.5 35.7033 60.357 38.5303 60.1645 41.1235L59.9582 43.626C59.9225 44.0275 59.8868 44.4152 59.8483 44.7948C59.6101 47.2439 58.5157 49.5307 56.7577 51.2525C54.9996 52.9743 52.6906 54.0209 50.237 54.208L47.982 54.3812L45.507 54.5518L42.8615 54.7085L40.1005 54.8405C37.735 54.9433 35.3677 54.9965 33 55C30.6323 54.9965 28.265 54.9433 25.8995 54.8405L23.1385 54.7085L20.4958 54.5518L18.0208 54.3812L15.7603 54.208C13.3071 54.0202 10.9988 52.9734 9.2413 51.2516C7.48383 49.5299 6.38983 47.2435 6.15175 44.7948L6.04175 43.626L5.8355 41.1235C5.62523 38.4206 5.51332 35.711 5.5 33C5.5 30.2967 5.643 27.4697 5.8355 24.8765L6.04175 22.374C6.0775 21.9725 6.11325 21.5848 6.15175 21.2052C6.38974 18.7569 7.48335 16.4709 9.24025 14.7492C10.9972 13.0275 13.3049 11.9804 15.7575 11.792L18.0153 11.616L20.4903 11.4483L23.1357 11.2915L25.8967 11.1595C28.2631 11.0567 30.6314 11.0036 33 11ZM33 16.5C30.7313 16.5 28.3965 16.5605 26.125 16.654L23.4355 16.7833L20.8533 16.9345L18.4278 17.0995L16.2058 17.2728C15.0379 17.3556 13.9371 17.8493 13.0985 18.6662C12.2599 19.4832 11.7376 20.5707 11.6243 21.736C11.3025 25.0607 11 29.1995 11 33C11 36.8005 11.3025 40.9393 11.6243 44.264C11.858 46.662 13.761 48.5265 16.2058 48.7272L18.4278 48.8978L20.8533 49.0627L23.4355 49.2167L26.125 49.346C28.3965 49.4395 30.7313 49.5 33 49.5C35.2687 49.5 37.6035 49.4395 39.875 49.346L42.5645 49.2167L45.1468 49.0655L47.5723 48.9005L49.7943 48.7272C50.9621 48.6444 52.0629 48.1507 52.9015 47.3337C53.7401 46.5168 54.2624 45.4293 54.3758 44.264C54.6975 40.9393 55 36.8005 55 33C55 29.1995 54.6975 25.0607 54.3758 21.736C54.2624 20.5707 53.7401 19.4832 52.9015 18.6662C52.0629 17.8493 50.9621 17.3556 49.7943 17.2728L47.5723 17.1022L45.1468 16.9372L42.5645 16.7833L39.875 16.654C37.5846 16.5555 35.2925 16.5041 33 16.5ZM27.5 26.3312C27.4998 26.0625 27.5653 25.7977 27.6908 25.56C27.8162 25.3223 27.9978 25.1189 28.2198 24.9673C28.4418 24.8158 28.6975 24.7208 28.9645 24.6906C29.2316 24.6604 29.502 24.6959 29.7523 24.794L29.975 24.904L41.525 31.57C41.755 31.7027 41.9496 31.889 42.0922 32.113C42.2348 32.3369 42.3213 32.592 42.3442 32.8566C42.3672 33.1211 42.3259 33.3873 42.224 33.6325C42.1221 33.8777 41.9625 34.0947 41.7588 34.265L41.525 34.43L29.975 41.0987C29.7422 41.2335 29.4801 41.3094 29.2113 41.3197C28.9425 41.33 28.6753 41.2744 28.433 41.1578C28.1906 41.0412 27.9804 40.8672 27.8206 40.6508C27.6609 40.4344 27.5565 40.1822 27.5165 39.9163L27.5 39.6688V26.3312Z" fill="white"/>
</svg>
